<svg xmlns="http://www.w3.org/2000/svg" xmlns:xlink="http://www.w3.org/1999/xlink" viewBox="0 0 91.66667 100">
    <g>
        <defs>
            <linearGradient id="badge-gold-gradient" x1="52.5" y1="2.5" x2="52.5" y2="102.5" gradientUnits="userSpaceOnUse">
                <stop offset="0" stop-color="#f9d641" />
                <stop offset="1" stop-color="#f8bc36" />
            </linearGradient>
        </defs>
        <path fill="url(#badge-gold-gradient)" d="M98.28277,47.36h0c-.18459-9.382-.87983-17.797-2.0917-19.8595-1.02214-1.742-6.1721-5.43476-12.6195-9.45853L66.3804,8.23311C59.94162,4.89541,54.4699,2.5,52.49778,2.5c-2.42987,0-10.17687,3.63131-18.49789,8.18049-6.30411,3.44623-12.9328,7.41557-17.83631,10.74623-3.85037,2.61278-6.63864,4.828-7.35893,6.07393-.73574,1.27216-1.28014,4.91124-1.63613,9.67794l-.00014-.00008c-.45195,6.03951-.599,13.88935-.43933,21.10033.20233,9.11082.89243,17.18541,2.07561,19.22049C11.66541,82.42328,46.78277,102.5,52.49778,102.5c2.374,0,9.82245-3.47115,17.92388-7.87722,6.4-3.48081,13.19866-7.5418,18.23618-10.9459l-.00046-.00026c3.93694-2.6605,6.80064-4.91944,7.53385-6.17728.72907-1.2482,1.27024-4.80557,1.62881-9.48065l-.00014-.00008C98.269,62.13222,98.42408,54.47227,98.28277,47.36Z" transform="translate(-6.66667 -2.5)" />
    </g>
    <g>
        <svg viewBox="0 0 98.69043 67.15833" x="32.3" y="22" height="27" width="27">
            <defs>
                <style>.cls-1{fill:#39424e;}</style>
            </defs>
            <title>30</title>
            <g id="_30" data-name="30">
                <path class="cls-1" d="M43.92662,32.17408A15.35642,15.35642,0,0,1,40.222,42.57246a19.19929,19.19929,0,0,1-10.39657,5.8894V48.73q7.89933.98368,11.96,4.797,4.05972,3.81516,4.05972,10.28607,0,9.41833-6.82779,14.65918-6.826,5.24448-19.49968,5.24267A47.33678,47.33678,0,0,1,.68457,80.1896V68.45429a42.43611,42.43611,0,0,0,8.34588,3.12314,35.06268,35.06268,0,0,0,9.01435,1.2065q6.826,0,10.085-2.32243,3.25538-2.32061,3.25719-7.45278a6.73442,6.73442,0,0,0-3.74813-6.51439q-3.74994-1.91573-11.96-1.91845H10.72607V44h5.04158q7.58683,0,11.0904-1.98548,3.50266-1.98638,3.50175-6.806,0-7.40477-9.28065-7.40749a21.19163,21.19163,0,0,0-6.53794,1.07245,31.87878,31.87878,0,0,0-7.38575,3.70284L.77515,23.071Q9.69892,16.64444,22.061,16.64534q10.12755,0,15.99793,4.105A13.16912,13.16912,0,0,1,43.92662,32.17408Z" transform="translate(-0.68457 -16.55658)"/>
                <path class="cls-1" d="M99.375,50.20277q0,17.0894-5.60136,25.30213-5.59774,8.21182-17.2461,8.21-11.2933,0-17.02146-8.47812-5.739-8.47812-5.73541-25.034,0-17.26874,5.576-25.45792,5.576-8.18737,17.18088-8.18827,11.2933,0,17.07219,8.56689Q99.37138,33.69126,99.375,50.20277Zm-31.90528,0q0,12.00524,2.07243,17.20443,2.07605,5.19557,6.98539,5.19919,4.826,0,6.96366-5.268,2.14127-5.26622,2.13765-17.13559,0-12.00252-2.15939-17.24791-2.163-5.24176-6.94192-5.24267-4.85862,0-6.96366,5.24267Q67.4661,38.19934,67.46972,50.20277Z" transform="translate(-0.68457 -16.55658)"/>
            </g>
        </svg>
    </g>
    <text class="badge-title" x="50%" y="65.5" text-anchor="middle" font-size="10">Days of Code</text>
    <g class="star-section" transform="translate(-21.5, 0)">
        <svg x="50%" y="71" height="10">
            <svg class="badge-star" viewBox="0 0 6.54904 6.25825" width="7" x="0">
                <path class="star" d="M55.51425,77.01983l-1.89417-.275-.84833-1.7175a.299.299,0,0,0-.27167-.16917.3245.3245,0,0,0-.2725.16917l-.305.61833-.5425,1.09916-.51417.075-1.38.2a.30333.30333,0,0,0-.18583.10083.33411.33411,0,0,0-.045.06833.35631.35631,0,0,0-.02417.07667.34087.34087,0,0,0-.005.04083.3038.3038,0,0,0,.02417.13417.33341.33341,0,0,0,.06667.0975l1.37167,1.33667-.2875,1.67167-.03667.21417c-.00167.01-.00167.02-.0025.02917l-.00167.0175a.26453.26453,0,0,0,.00167.04417.30489.30489,0,0,0,.44417.22917l1.69417-.89,1.69416.89a.30352.30352,0,0,0,.44084-.32L54.31175,78.874l1.37083-1.33667a.30339.30339,0,0,0-.16833-.5175" transform="translate(-49.22548 -74.85817)" />
            </svg>
            <svg class="badge-star" viewBox="0 0 6.54904 6.25825" width="7" x="9">
                <path class="star" d="M55.51425,77.01983l-1.89417-.275-.84833-1.7175a.299.299,0,0,0-.27167-.16917.3245.3245,0,0,0-.2725.16917l-.305.61833-.5425,1.09916-.51417.075-1.38.2a.30333.30333,0,0,0-.18583.10083.33411.33411,0,0,0-.045.06833.35631.35631,0,0,0-.02417.07667.34087.34087,0,0,0-.005.04083.3038.3038,0,0,0,.02417.13417.33341.33341,0,0,0,.06667.0975l1.37167,1.33667-.2875,1.67167-.03667.21417c-.00167.01-.00167.02-.0025.02917l-.00167.0175a.26453.26453,0,0,0,.00167.04417.30489.30489,0,0,0,.44417.22917l1.69417-.89,1.69416.89a.30352.30352,0,0,0,.44084-.32L54.31175,78.874l1.37083-1.33667a.30339.30339,0,0,0-.16833-.5175" transform="translate(-49.22548 -74.85817)" />
            </svg>
            <svg class="badge-star" viewBox="0 0 6.54904 6.25825" width="7" x="18">
                <path class="star" d="M55.51425,77.01983l-1.89417-.275-.84833-1.7175a.299.299,0,0,0-.27167-.16917.3245.3245,0,0,0-.2725.16917l-.305.61833-.5425,1.09916-.51417.075-1.38.2a.30333.30333,0,0,0-.18583.10083.33411.33411,0,0,0-.045.06833.35631.35631,0,0,0-.02417.07667.34087.34087,0,0,0-.005.04083.3038.3038,0,0,0,.02417.13417.33341.33341,0,0,0,.06667.0975l1.37167,1.33667-.2875,1.67167-.03667.21417c-.00167.01-.00167.02-.0025.02917l-.00167.0175a.26453.26453,0,0,0,.00167.04417.30489.30489,0,0,0,.44417.22917l1.69417-.89,1.69416.89a.30352.30352,0,0,0,.44084-.32L54.31175,78.874l1.37083-1.33667a.30339.30339,0,0,0-.16833-.5175" transform="translate(-49.22548 -74.85817)" />
            </svg>
            <svg class="badge-star" viewBox="0 0 6.54904 6.25825" width="7" x="27">
                <path class="star" d="M55.51425,77.01983l-1.89417-.275-.84833-1.7175a.299.299,0,0,0-.27167-.16917.3245.3245,0,0,0-.2725.16917l-.305.61833-.5425,1.09916-.51417.075-1.38.2a.30333.30333,0,0,0-.18583.10083.33411.33411,0,0,0-.045.06833.35631.35631,0,0,0-.02417.07667.34087.34087,0,0,0-.005.04083.3038.3038,0,0,0,.02417.13417.33341.33341,0,0,0,.06667.0975l1.37167,1.33667-.2875,1.67167-.03667.21417c-.00167.01-.00167.02-.0025.02917l-.00167.0175a.26453.26453,0,0,0,.00167.04417.30489.30489,0,0,0,.44417.22917l1.69417-.89,1.69416.89a.30352.30352,0,0,0,.44084-.32L54.31175,78.874l1.37083-1.33667a.30339.30339,0,0,0-.16833-.5175" transform="translate(-49.22548 -74.85817)" />
            </svg>
            <svg class="badge-star" viewBox="0 0 6.54904 6.25825" width="7" x="36">
                <path class="star" d="M55.51425,77.01983l-1.89417-.275-.84833-1.7175a.299.299,0,0,0-.27167-.16917.3245.3245,0,0,0-.2725.16917l-.305.61833-.5425,1.09916-.51417.075-1.38.2a.30333.30333,0,0,0-.18583.10083.33411.33411,0,0,0-.045.06833.35631.35631,0,0,0-.02417.07667.34087.34087,0,0,0-.005.04083.3038.3038,0,0,0,.02417.13417.33341.33341,0,0,0,.06667.0975l1.37167,1.33667-.2875,1.67167-.03667.21417c-.00167.01-.00167.02-.0025.02917l-.00167.0175a.26453.26453,0,0,0,.00167.04417.30489.30489,0,0,0,.44417.22917l1.69417-.89,1.69416.89a.30352.30352,0,0,0,.44084-.32L54.31175,78.874l1.37083-1.33667a.30339.30339,0,0,0-.16833-.5175" transform="translate(-49.22548 -74.85817)" />
            </svg>
        </svg>
    </g>
</svg>