<svg xmlns="http://www.w3.org/2000/svg" xmlns:xlink="http://www.w3.org/1999/xlink" viewBox="0 0 91.66667 100">
	<g>
		<defs>
			<linearGradient id="badge-gold-gradient" x1="52.5" y1="2.5" x2="52.5" y2="102.5" gradientUnits="userSpaceOnUse">
				<stop offset="0" stop-color="#f9d641" />
				<stop offset="1" stop-color="#f8bc36" />
			</linearGradient>
		</defs>
		<path fill="url(#badge-gold-gradient)" d="M98.28277,47.36h0c-.18459-9.382-.87983-17.797-2.0917-19.8595-1.02214-1.742-6.1721-5.43476-12.6195-9.45853L66.3804,8.23311C59.94162,4.89541,54.4699,2.5,52.49778,2.5c-2.42987,0-10.17687,3.63131-18.49789,8.18049-6.30411,3.44623-12.9328,7.41557-17.83631,10.74623-3.85037,2.61278-6.63864,4.828-7.35893,6.07393-.73574,1.27216-1.28014,4.91124-1.63613,9.67794l-.00014-.00008c-.45195,6.03951-.599,13.88935-.43933,21.10033.20233,9.11082.89243,17.18541,2.07561,19.22049C11.66541,82.42328,46.78277,102.5,52.49778,102.5c2.374,0,9.82245-3.47115,17.92388-7.87722,6.4-3.48081,13.19866-7.5418,18.23618-10.9459l-.00046-.00026c3.93694-2.6605,6.80064-4.91944,7.53385-6.17728.72907-1.2482,1.27024-4.80557,1.62881-9.48065l-.00014-.00008C98.269,62.13222,98.42408,54.47227,98.28277,47.36Z" transform="translate(-6.66667 -2.5)" />
	</g>
	<g>
		<svg viewBox="0 0 95.41041 98.75" x="32.3" y="20" height="27" width="27">
			<defs>
				<style>.cls-1{fill:none;}.cls-2{fill:#39424e;}</style>
			</defs>
			<title>Problem_Solving</title>
			<g id="problem_solving" data-name="problem solving">
				<polygon class="cls-1" points="48.433 61.241 62.272 53.23 48.433 45.582 48.433 61.241"/>
				<path class="cls-1" d="M49.63581,36.26994V19.9878c0-.074.01534-.13269.01845-.20382L47.70143,18.6322,35.79772,11.86884V28.36347l5.536,3.26487Z" transform="translate(-2.2948 -0.625)"/>
				<polygon class="cls-1" points="48.171 18.27 48.203 18.289 62.849 9.736 48.381 1.343 33.694 9.854 48.171 18.27"/>
				<polygon class="cls-1" points="1.457 70.71 46.977 96.929 46.977 80.542 1.457 54.322 1.457 70.71"/>
				<path class="cls-1" d="M50.36418,79.7104c.06824,0,.07446.06223.11958.08535l45.03633-25.941L60.22771,33.15065,50.804,38.24612l-.01623.00867-.05957.03223H50.682a1.19688,1.19688,0,0,1-1.11156-.17381l-1.96128-1.18579-7.191-4.1635L4.33476,53.30579ZM34.11227,53.048l15.34529-8.92178h.00022l.178-.10358h.11113a.75833.75833,0,0,1,.52388,0h.09335l.22138.12869h0l15.1917,8.83243c.36407.2056.61034.32518.61012.87129,0,.3643.02267.41631-.36407.72837L50.81716,63.22311l-.25027.1547c-.06424.0509-.14581.03334-.218.06223-.01778.01022-.03756.00689-.056.01578a.74976.74976,0,0,1-.409.04845c-.05734-.00356-.10735.03578-.16492.01956a.82079.82079,0,0,1-.28583-.146l-.24338-.1507L34.19473,54.707c-.48565-.27894-.58212-.48788-.58212-.85195A.81609.81609,0,0,1,34.11227,53.048Z" transform="translate(-2.2948 -0.625)"/>
				<path class="cls-2" d="M34.19473,54.707l14.995,8.52015.24338.1507a.82079.82079,0,0,0,.28583.146c.05757.01623.10758-.02312.16492-.01956a.74976.74976,0,0,0,.409-.04845c.01845-.00889.03823-.00556.056-.01578.07224-.02889.15381-.01134.218-.06223l.25027-.1547,15.20615-8.63973c.38674-.31206.36407-.36407.36407-.72837.00022-.54611-.246-.66569-.61012-.87129L50.58556,44.1513h0l-.22138-.12869h-.09335a.75833.75833,0,0,0-.52388,0h-.11113l-.178.10358h-.00022L34.11227,53.048a.81609.81609,0,0,0-.49966.80705C33.61261,54.21909,33.70908,54.428,34.19473,54.707Zm16.53353,7.15943V46.20748l13.8381,7.64731Z" transform="translate(-2.2948 -0.625)"/>
				<path class="cls-2" d="M97.7052,53.85479c0-.36407.00489-.605-.3643-.72815L62.18855,32.09044l4.19862-2.27023c.42142-.18737.3643-.36407.3643-.72837V10.88376c0-.07668-.01578-.13758-.01911-.21071a1.21385,1.21385,0,0,0,.01911-.15336c0-.3643,0-.72837-.3643-.72837L51.21191.7584a.94806.94806,0,0,0-.96153-.00489L34.70527,9.79132a.68617.68617,0,0,0-.29495.337.60869.60869,0,0,0-.03067.08246,2.3798,2.3798,0,0,0-.03867.673V28.79689a.65773.65773,0,0,0,.3643.65924l3.981,2.30513L2.65887,52.39828c-.36407.36407-.36407.36407-.36407.72837,0,.07668.01578.13758.01911.21071a1.21385,1.21385,0,0,0-.01911.15336v17.844c0,.36407,0,.52988.36407.72815L49.99989,99.375a1.71436,1.71436,0,0,0,.65813-.33407l.07024-.03L97.3409,72.42717c.3643,0,.3643-.36407.3643-.72837V54.21909l-.01378-.01378A2.62317,2.62317,0,0,0,97.7052,53.85479ZM50.67536,1.968,65.144,10.36121l-14.64626,8.5526-.03245-.01889L35.98864,10.47857ZM35.79772,11.86884,47.70143,18.6322,49.65426,19.784c-.00311.07113-.01845.1298-.01845.20382V36.26994l-8.3021-4.64159-5.536-3.26487ZM47.60919,36.92741l1.96128,1.18579A1.19688,1.19688,0,0,0,50.682,38.287h.04623l.05957-.03223.01623-.00867,9.42366-5.09546L95.5201,53.85479l-45.03633,25.941c-.04512-.02312-.05134-.08535-.11958-.08535L4.33476,53.30579,40.41819,32.76391Zm1.66255,60.62678L3.75153,71.33473V54.94745L49.27174,81.16692Z" transform="translate(-2.2948 -0.625)"/>
			</g>
		</svg>
	</g>
	<text class="badge-title" x="50%" y="56" text-anchor="middle" font-size="10">Problem Solving</text>
	<text class="badge-title" x="50%" y="67" text-anchor="middle" font-size="10">Algorithms</text>
	<g class="star-section" transform="translate(-26, 0)">
		<svg x="50%" y="71" height="10">
			<svg class="badge-star" viewBox="0 0 6.54904 6.25825" width="7" x="0">
				<path class="star" d="M55.51425,77.01983l-1.89417-.275-.84833-1.7175a.299.299,0,0,0-.27167-.16917.3245.3245,0,0,0-.2725.16917l-.305.61833-.5425,1.09916-.51417.075-1.38.2a.30333.30333,0,0,0-.18583.10083.33411.33411,0,0,0-.045.06833.35631.35631,0,0,0-.02417.07667.34087.34087,0,0,0-.005.04083.3038.3038,0,0,0,.02417.13417.33341.33341,0,0,0,.06667.0975l1.37167,1.33667-.2875,1.67167-.03667.21417c-.00167.01-.00167.02-.0025.02917l-.00167.0175a.26453.26453,0,0,0,.00167.04417.30489.30489,0,0,0,.44417.22917l1.69417-.89,1.69416.89a.30352.30352,0,0,0,.44084-.32L54.31175,78.874l1.37083-1.33667a.30339.30339,0,0,0-.16833-.5175" transform="translate(-49.22548 -74.85817)" />
			</svg>
			<svg class="badge-star" viewBox="0 0 6.54904 6.25825" width="7" x="9">
				<path class="star" d="M55.51425,77.01983l-1.89417-.275-.84833-1.7175a.299.299,0,0,0-.27167-.16917.3245.3245,0,0,0-.2725.16917l-.305.61833-.5425,1.09916-.51417.075-1.38.2a.30333.30333,0,0,0-.18583.10083.33411.33411,0,0,0-.045.06833.35631.35631,0,0,0-.02417.07667.34087.34087,0,0,0-.005.04083.3038.3038,0,0,0,.02417.13417.33341.33341,0,0,0,.06667.0975l1.37167,1.33667-.2875,1.67167-.03667.21417c-.00167.01-.00167.02-.0025.02917l-.00167.0175a.26453.26453,0,0,0,.00167.04417.30489.30489,0,0,0,.44417.22917l1.69417-.89,1.69416.89a.30352.30352,0,0,0,.44084-.32L54.31175,78.874l1.37083-1.33667a.30339.30339,0,0,0-.16833-.5175" transform="translate(-49.22548 -74.85817)" />
			</svg>
			<svg class="badge-star" viewBox="0 0 6.54904 6.25825" width="7" x="18">
				<path class="star" d="M55.51425,77.01983l-1.89417-.275-.84833-1.7175a.299.299,0,0,0-.27167-.16917.3245.3245,0,0,0-.2725.16917l-.305.61833-.5425,1.09916-.51417.075-1.38.2a.30333.30333,0,0,0-.18583.10083.33411.33411,0,0,0-.045.06833.35631.35631,0,0,0-.02417.07667.34087.34087,0,0,0-.005.04083.3038.3038,0,0,0,.02417.13417.33341.33341,0,0,0,.06667.0975l1.37167,1.33667-.2875,1.67167-.03667.21417c-.00167.01-.00167.02-.0025.02917l-.00167.0175a.26453.26453,0,0,0,.00167.04417.30489.30489,0,0,0,.44417.22917l1.69417-.89,1.69416.89a.30352.30352,0,0,0,.44084-.32L54.31175,78.874l1.37083-1.33667a.30339.30339,0,0,0-.16833-.5175" transform="translate(-49.22548 -74.85817)" />
			</svg>
			<svg class="badge-star" viewBox="0 0 6.54904 6.25825" width="7" x="27">
				<path class="star" d="M55.51425,77.01983l-1.89417-.275-.84833-1.7175a.299.299,0,0,0-.27167-.16917.3245.3245,0,0,0-.2725.16917l-.305.61833-.5425,1.09916-.51417.075-1.38.2a.30333.30333,0,0,0-.18583.10083.33411.33411,0,0,0-.045.06833.35631.35631,0,0,0-.02417.07667.34087.34087,0,0,0-.005.04083.3038.3038,0,0,0,.02417.13417.33341.33341,0,0,0,.06667.0975l1.37167,1.33667-.2875,1.67167-.03667.21417c-.00167.01-.00167.02-.0025.02917l-.00167.0175a.26453.26453,0,0,0,.00167.04417.30489.30489,0,0,0,.44417.22917l1.69417-.89,1.69416.89a.30352.30352,0,0,0,.44084-.32L54.31175,78.874l1.37083-1.33667a.30339.30339,0,0,0-.16833-.5175" transform="translate(-49.22548 -74.85817)" />
			</svg>
			<svg class="badge-star" viewBox="0 0 6.54904 6.25825" width="7" x="36">
				<path class="star" d="M55.51425,77.01983l-1.89417-.275-.84833-1.7175a.299.299,0,0,0-.27167-.16917.3245.3245,0,0,0-.2725.16917l-.305.61833-.5425,1.09916-.51417.075-1.38.2a.30333.30333,0,0,0-.18583.10083.33411.33411,0,0,0-.045.06833.35631.35631,0,0,0-.02417.07667.34087.34087,0,0,0-.005.04083.3038.3038,0,0,0,.02417.13417.33341.33341,0,0,0,.06667.0975l1.37167,1.33667-.2875,1.67167-.03667.21417c-.00167.01-.00167.02-.0025.02917l-.00167.0175a.26453.26453,0,0,0,.00167.04417.30489.30489,0,0,0,.44417.22917l1.69417-.89,1.69416.89a.30352.30352,0,0,0,.44084-.32L54.31175,78.874l1.37083-1.33667a.30339.30339,0,0,0-.16833-.5175" transform="translate(-49.22548 -74.85817)" />
			</svg>
			<svg class="badge-star" viewBox="0 0 6.54904 6.25825" width="7" x="45">
				<path class="star" d="M55.51425,77.01983l-1.89417-.275-.84833-1.7175a.299.299,0,0,0-.27167-.16917.3245.3245,0,0,0-.2725.16917l-.305.61833-.5425,1.09916-.51417.075-1.38.2a.30333.30333,0,0,0-.18583.10083.33411.33411,0,0,0-.045.06833.35631.35631,0,0,0-.02417.07667.34087.34087,0,0,0-.005.04083.3038.3038,0,0,0,.02417.13417.33341.33341,0,0,0,.06667.0975l1.37167,1.33667-.2875,1.67167-.03667.21417c-.00167.01-.00167.02-.0025.02917l-.00167.0175a.26453.26453,0,0,0,.00167.04417.30489.30489,0,0,0,.44417.22917l1.69417-.89,1.69416.89a.30352.30352,0,0,0,.44084-.32L54.31175,78.874l1.37083-1.33667a.30339.30339,0,0,0-.16833-.5175" transform="translate(-49.22548 -74.85817)" />
			</svg>
		</svg>
	</g>
</svg>